<?xml version="1.0" encoding="UTF-8" standalone="no"?>
<svg
   xmlns:dc="http://purl.org/dc/elements/1.1/"
   xmlns:cc="http://creativecommons.org/ns#"
   xmlns:rdf="http://www.w3.org/1999/02/22-rdf-syntax-ns#"
   xmlns:svg="http://www.w3.org/2000/svg"
   xmlns="http://www.w3.org/2000/svg"
   xmlns:sodipodi="http://sodipodi.sourceforge.net/DTD/sodipodi-0.dtd"
   xmlns:inkscape="http://www.inkscape.org/namespaces/inkscape"
   enable-background="new 0 0 200 200"
   height="96"
   id="Layer_1"
   version="1.1"
   viewBox="0 0 96 96"
   width="96"
   xml:space="preserve"
   sodipodi:docname="ic_fundamentals_2.svg"
   inkscape:version="0.92.1 r"><metadata
     id="metadata13"><rdf:RDF><cc:Work
         rdf:about=""><dc:format>image/svg+xml</dc:format><dc:type
           rdf:resource="http://purl.org/dc/dcmitype/StillImage" /><dc:title></dc:title></cc:Work></rdf:RDF></metadata><defs
     id="defs11" /><sodipodi:namedview
     pagecolor="#ffffff"
     bordercolor="#666666"
     borderopacity="1"
     objecttolerance="10"
     gridtolerance="10"
     guidetolerance="10"
     inkscape:pageopacity="0"
     inkscape:pageshadow="2"
     inkscape:window-width="1280"
     inkscape:window-height="737"
     id="namedview9"
     showgrid="false"
     inkscape:zoom="5.3854167"
     inkscape:cx="48"
     inkscape:cy="48"
     inkscape:window-x="0"
     inkscape:window-y="32"
     inkscape:window-maximized="1"
     inkscape:current-layer="Layer_1"
     inkscape:pagecheckerboard="true"
     fit-margin-top="0"
     fit-margin-left="0"
     fit-margin-right="0"
     fit-margin-bottom="0" /><g
     id="g4819"
     transform="scale(0.48)"><path
       d="M 59.495,13.546 H 45.949 V 5.578 c 0,-1.427 0.545,-2.854 1.635,-3.943 C 48.673,0.545 50.1,0 51.527,0 h 2.392 c 1.425,0 2.854,0.546 3.941,1.635 1.091,1.089 1.634,2.517 1.634,3.943 v 7.968 z M 83.134,5.578 C 83.134,4.151 82.589,2.724 81.502,1.635 80.413,0.545 78.983,0 77.556,0 h -2.39 C 73.739,0 72.31,0.546 71.221,1.635 70.134,2.724 69.588,4.152 69.588,5.578 v 7.968 h 13.546 z m 23.637,0 c 0,-1.427 -0.544,-2.854 -1.631,-3.943 C 104.049,0.545 102.623,0 101.195,0 h -2.39 C 97.376,0 95.949,0.546 94.86,1.635 93.771,2.724 93.227,4.152 93.227,5.578 v 7.968 H 106.77 V 5.578 Z m 23.642,0 c 0,-1.427 -0.547,-2.854 -1.634,-3.943 C 127.688,0.545 126.258,0 124.833,0 h -2.392 c -1.426,0 -2.854,0.546 -3.941,1.635 -1.092,1.089 -1.635,2.517 -1.635,3.943 v 7.968 h 13.548 z m 23.635,0 c 0,-1.427 -0.543,-2.854 -1.634,-3.943 C 151.326,0.545 149.897,0 148.473,0 h -2.393 c -1.425,0 -2.854,0.546 -3.941,1.635 -1.091,1.089 -1.635,2.517 -1.635,3.943 v 7.968 h 13.544 z M 5.578,140.504 c -1.427,0 -2.854,0.544 -3.943,1.635 C 0.543,143.226 0,144.655 0,146.084 v 2.389 c 0,1.429 0.544,2.854 1.635,3.945 1.089,1.087 2.517,1.635 3.943,1.635 h 7.968 v -13.549 z m 0,-23.639 c -1.427,0 -2.854,0.543 -3.943,1.635 C 0.543,119.587 0,121.016 0,122.445 v 2.388 c 0,1.43 0.544,2.854 1.635,3.946 1.089,1.087 2.517,1.63 3.943,1.63 h 7.968 v -13.544 z m 0,-23.638 c -1.427,0 -2.854,0.543 -3.943,1.635 C 0.543,95.949 0,97.376 0,98.805 v 2.39 c 0,1.428 0.544,2.854 1.635,3.944 1.089,1.087 2.517,1.635 3.943,1.635 h 7.968 V 93.227 Z m 0,-23.639 c -1.427,0 -2.854,0.546 -3.943,1.635 C 0.543,72.312 0,73.739 0,75.164 v 2.392 c 0,1.427 0.544,2.856 1.635,3.946 1.089,1.087 2.517,1.632 3.943,1.632 h 7.968 V 69.588 Z m 0,-23.637 c -1.427,0 -2.854,0.543 -3.943,1.633 C 0.543,48.673 0,50.1 0,51.527 v 2.39 c 0,1.43 0.544,2.859 1.635,3.944 1.089,1.091 2.517,1.634 3.943,1.634 h 7.968 V 45.951 Z m 180.878,94.553 v 13.549 h 7.968 c 1.425,0 2.854,-0.548 3.945,-1.635 1.087,-1.092 1.631,-2.517 1.631,-3.945 v -2.389 c 0,-1.429 -0.544,-2.858 -1.631,-3.945 -1.091,-1.091 -2.521,-1.635 -3.945,-1.635 z m 0,-23.639 v 13.544 h 7.968 c 1.425,0 2.854,-0.543 3.945,-1.63 1.087,-1.092 1.631,-2.517 1.631,-3.946 v -2.388 c 0,-1.43 -0.544,-2.858 -1.631,-3.945 -1.091,-1.092 -2.521,-1.635 -3.945,-1.635 z m 0,-23.638 v 13.547 h 7.968 c 1.425,0 2.854,-0.548 3.945,-1.635 1.087,-1.091 1.631,-2.517 1.631,-3.944 v -2.39 c 0,-1.429 -0.544,-2.856 -1.631,-3.943 -1.091,-1.091 -2.521,-1.635 -3.945,-1.635 z m 0,-23.639 v 13.546 h 7.968 c 1.425,0 2.854,-0.545 3.945,-1.632 1.087,-1.089 1.631,-2.519 1.631,-3.946 v -2.392 c 0,-1.425 -0.544,-2.852 -1.631,-3.941 -1.091,-1.089 -2.521,-1.635 -3.945,-1.635 z m 0,-23.637 v 13.544 h 7.968 c 1.425,0 2.854,-0.543 3.945,-1.634 1.087,-1.085 1.631,-2.514 1.631,-3.944 v -2.39 c 0,-1.427 -0.544,-2.854 -1.631,-3.943 -1.091,-1.089 -2.521,-1.633 -3.945,-1.633 z M 59.495,186.456 H 45.949 v 7.968 c 0,1.425 0.545,2.854 1.635,3.941 1.089,1.091 2.516,1.635 3.943,1.635 h 2.392 c 1.425,0 2.854,-0.544 3.941,-1.635 1.091,-1.087 1.634,-2.517 1.634,-3.941 v -7.968 z m 23.639,0 H 69.588 v 7.968 c 0,1.425 0.546,2.854 1.633,3.941 1.089,1.091 2.519,1.635 3.945,1.635 h 2.39 c 1.427,0 2.854,-0.544 3.946,-1.635 1.087,-1.087 1.632,-2.517 1.632,-3.941 z m 23.637,0 H 93.227 v 7.968 c 0,1.425 0.543,2.854 1.633,3.941 1.089,1.091 2.518,1.635 3.945,1.635 h 2.39 c 1.428,0 2.854,-0.544 3.944,-1.635 1.087,-1.087 1.631,-2.517 1.631,-3.941 v -7.968 z m 23.642,0 h -13.548 v 7.968 c 0,1.425 0.543,2.854 1.635,3.941 1.087,1.091 2.516,1.635 3.941,1.635 h 2.392 c 1.425,0 2.854,-0.544 3.946,-1.635 1.087,-1.087 1.634,-2.517 1.634,-3.941 z m 23.635,0 h -13.544 v 7.968 c 0,1.425 0.544,2.854 1.635,3.941 1.087,1.091 2.517,1.635 3.941,1.635 h 2.393 c 1.425,0 2.854,-0.544 3.941,-1.635 1.091,-1.087 1.634,-2.517 1.634,-3.941 z"
       id="path2"
       inkscape:connector-curvature="0"
       style="fill:#000000;fill-opacity:1" /><path
       d="M 48.467,33.866 33.864,48.467 v 103.065 l 14.603,14.601 h 103.065 l 14.601,-14.601 V 48.467 L 151.532,33.866 Z m 27.557,61.916 -5.812,0.922 V 91.98 H 54.548 v 15.804 h 15.665 v -5.361 l 5.812,1.202 v 2.952 c 0,2.286 -0.433,3.839 -1.288,4.665 -0.858,0.83 -2.493,1.241 -4.902,1.241 H 54.927 c -2.424,0 -4.061,-0.411 -4.913,-1.241 -0.85,-0.826 -1.275,-2.379 -1.275,-4.665 V 93.422 c 0,-2.268 0.426,-3.821 1.275,-4.654 0.852,-0.834 2.488,-1.251 4.913,-1.251 h 14.907 c 2.41,0 4.044,0.417 4.902,1.251 0.855,0.833 1.288,2.386 1.288,4.654 z m 38.975,2.15 c 0,1.684 -0.444,2.91 -1.335,3.674 -0.89,0.765 -2.323,1.146 -4.31,1.146 H 93.717 v 9.731 H 88 V 87.517 h 21.354 c 1.986,0 3.42,0.381 4.31,1.145 0.891,0.764 1.335,1.996 1.335,3.697 z m 36.259,8.645 c 0,2.286 -0.423,3.839 -1.271,4.665 -0.852,0.83 -2.49,1.241 -4.917,1.241 h -15.778 c -2.409,0 -4.044,-0.411 -4.903,-1.241 -0.856,-0.826 -1.284,-2.379 -1.284,-4.665 v -19.06 h 5.807 v 20.268 h 16.562 V 87.517 h 5.785 v 19.06 z m -42.412,-14.3 c 0.372,0.291 0.557,0.798 0.557,1.523 v 2.668 c 0,0.738 -0.185,1.256 -0.557,1.547 -0.372,0.291 -1.057,0.437 -2.067,0.437 H 93.717 v -6.611 h 13.061 c 1.011,0 1.696,0.143 2.068,0.436 z M 178.552,41.729 158.268,21.445 c -0.616,-0.621 -1.84,-1.125 -2.717,-1.125 H 44.449 c -0.877,0 -2.101,0.505 -2.722,1.125 L 21.446,41.729 c -0.621,0.619 -1.128,1.842 -1.128,2.72 v 111.102 c 0,0.877 0.507,2.101 1.128,2.717 l 20.282,20.288 c 0.621,0.621 1.844,1.126 2.722,1.126 h 111.102 c 0.877,0 2.101,-0.505 2.717,-1.126 l 20.284,-20.288 c 0.62,-0.616 1.13,-1.84 1.13,-2.717 V 44.449 c -0.001,-0.877 -0.511,-2.101 -1.131,-2.72 z m -6.839,112.114 -17.87,17.87 H 46.154 L 28.286,153.843 V 46.157 L 46.154,28.286 h 107.688 l 17.87,17.871 v 107.686 z"
       id="path4"
       inkscape:connector-curvature="0"
       style="fill:#000000;fill-opacity:1" /></g></svg>