<?xml version="1.0" encoding="UTF-8" standalone="no"?>
<svg
   xmlns:dc="http://purl.org/dc/elements/1.1/"
   xmlns:cc="http://creativecommons.org/ns#"
   xmlns:rdf="http://www.w3.org/1999/02/22-rdf-syntax-ns#"
   xmlns:svg="http://www.w3.org/2000/svg"
   xmlns="http://www.w3.org/2000/svg"
   xmlns:sodipodi="http://sodipodi.sourceforge.net/DTD/sodipodi-0.dtd"
   xmlns:inkscape="http://www.inkscape.org/namespaces/inkscape"
   version="1.1"
   viewBox="0 0 96 96"
   enable-background="new 0 0 426 426"
   id="svg8"
   sodipodi:docname="ic_fundamentals.svg"
   width="96"
   height="96"
   inkscape:version="0.92.1 r">
  <metadata
     id="metadata14">
    <rdf:RDF>
      <cc:Work
         rdf:about="">
        <dc:format>image/svg+xml</dc:format>
        <dc:type
           rdf:resource="http://purl.org/dc/dcmitype/StillImage" />
        <dc:title></dc:title>
      </cc:Work>
    </rdf:RDF>
  </metadata>
  <defs
     id="defs12" />
  <sodipodi:namedview
     pagecolor="#ffffff"
     bordercolor="#666666"
     borderopacity="1"
     objecttolerance="10"
     gridtolerance="10"
     guidetolerance="10"
     inkscape:pageopacity="0"
     inkscape:pageshadow="2"
     inkscape:window-width="1280"
     inkscape:window-height="737"
     id="namedview10"
     showgrid="false"
     inkscape:pagecheckerboard="true"
     fit-margin-top="0"
     fit-margin-left="0"
     fit-margin-right="0"
     fit-margin-bottom="0"
     inkscape:zoom="5.3854167"
     inkscape:cx="48"
     inkscape:cy="48"
     inkscape:window-x="0"
     inkscape:window-y="32"
     inkscape:window-maximized="1"
     inkscape:current-layer="svg8" />
  <g
     id="g4495"
     transform="scale(0.22535211)">
    <path
       d="m 416,176.619 c 5.523,0 10,-4.477 10,-10 0,-5.523 -4.477,-10 -10,-10 H 366.848 V 130.238 H 416 c 5.523,0 10,-4.477 10,-10 0,-5.523 -4.477,-10 -10,-10 H 366.848 V 69.152 c 0,-5.523 -4.477,-10 -10,-10 H 315.762 V 10 c 0,-5.523 -4.477,-10 -10,-10 -5.523,0 -10,4.477 -10,10 V 59.152 H 269.38 V 10 c 0,-5.523 -4.477,-10 -10,-10 -5.523,0 -10,4.477 -10,10 V 59.152 H 223 V 10 C 223,4.477 218.523,0 213,0 207.477,0 203,4.477 203,10 V 59.152 H 176.619 V 10 c 0,-5.523 -4.477,-10 -10,-10 -5.523,0 -10,4.477 -10,10 V 59.152 H 130.238 V 10 c 0,-5.523 -4.477,-10 -10,-10 -5.523,0 -10,4.477 -10,10 V 59.152 H 69.152 c -5.523,0 -10,4.477 -10,10 v 41.086 H 10 c -5.523,0 -10,4.477 -10,10 0,5.523 4.477,10 10,10 h 49.152 v 26.381 H 10 c -5.523,0 -10,4.477 -10,10 0,5.523 4.477,10 10,10 H 59.152 V 203 H 10 c -5.523,0 -10,4.477 -10,10 0,5.523 4.477,10 10,10 h 49.152 v 26.381 H 10 c -5.523,0 -10,4.477 -10,10 0,5.523 4.477,10 10,10 h 49.152 v 26.381 H 10 c -5.523,0 -10,4.477 -10,10 0,5.523 4.477,10 10,10 h 49.152 v 41.086 c 0,5.523 4.477,10 10,10 h 41.086 V 416 c 0,5.523 4.477,10 10,10 5.523,0 10,-4.477 10,-10 v -49.152 h 26.381 V 416 c 0,5.523 4.477,10 10,10 5.523,0 10,-4.477 10,-10 V 366.848 H 203 V 416 c 0,5.523 4.477,10 10,10 5.523,0 10,-4.477 10,-10 v -49.152 h 26.38 V 416 c 0,5.523 4.477,10 10,10 5.523,0 10,-4.477 10,-10 v -49.152 h 26.381 V 416 c 0,5.523 4.477,10 10,10 5.523,0 10,-4.477 10,-10 v -49.152 h 41.086 c 5.523,0 10,-4.477 10,-10 V 315.762 H 416 c 5.523,0 10,-4.477 10,-10 0,-5.523 -4.477,-10 -10,-10 H 366.848 V 269.381 H 416 c 5.523,0 10,-4.477 10,-10 0,-5.523 -4.477,-10 -10,-10 H 366.848 V 223 H 416 c 5.523,0 10,-4.477 10,-10 0,-5.523 -4.477,-10 -10,-10 H 366.848 V 176.619 Z M 346.848,203 h -8.821 c -5.523,0 -10,4.477 -10,10 0,5.523 4.477,10 10,10 h 8.821 v 26.381 h -8.821 c -5.523,0 -10,4.477 -10,10 0,5.523 4.477,10 10,10 h 8.821 v 26.381 h -8.821 c -5.523,0 -10,4.477 -10,10 0,5.523 4.477,10 10,10 h 8.821 v 31.086 h -31.086 v -8.821 c 0,-5.523 -4.477,-10 -10,-10 -5.523,0 -10,4.477 -10,10 v 8.821 H 269.38 v -8.821 c 0,-5.523 -4.477,-10 -10,-10 -5.523,0 -10,4.477 -10,10 v 8.821 H 223 v -8.821 c 0,-5.523 -4.477,-10 -10,-10 -5.523,0 -10,4.477 -10,10 v 8.821 h -26.381 v -8.821 c 0,-5.523 -4.477,-10 -10,-10 -5.523,0 -10,4.477 -10,10 v 8.821 h -26.381 v -8.821 c 0,-5.523 -4.477,-10 -10,-10 -5.523,0 -10,4.477 -10,10 v 8.821 H 79.152 v -31.086 h 8.821 c 5.523,0 10,-4.477 10,-10 0,-5.523 -4.477,-10 -10,-10 h -8.821 v -26.381 h 8.821 c 5.523,0 10,-4.477 10,-10 0,-5.523 -4.477,-10 -10,-10 H 79.152 V 223 h 8.821 c 5.523,0 10,-4.477 10,-10 0,-5.523 -4.477,-10 -10,-10 h -8.821 v -26.381 h 8.821 c 5.523,0 10,-4.477 10,-10 0,-5.523 -4.477,-10 -10,-10 h -8.821 v -26.381 h 8.821 c 5.523,0 10,-4.477 10,-10 0,-5.523 -4.477,-10 -10,-10 H 79.152 V 79.152 h 31.086 v 8.821 c 0,5.523 4.477,10 10,10 5.523,0 10,-4.477 10,-10 v -8.821 h 26.381 v 8.821 c 0,5.523 4.477,10 10,10 5.523,0 10,-4.477 10,-10 V 79.152 H 203 v 8.821 c 0,5.523 4.477,10 10,10 5.523,0 10,-4.477 10,-10 v -8.821 h 26.38 v 8.821 c 0,5.523 4.477,10 10,10 5.523,0 10,-4.477 10,-10 v -8.821 h 26.381 v 8.821 c 0,5.523 4.477,10 10,10 5.523,0 10,-4.477 10,-10 v -8.821 h 31.086 v 31.086 h -8.821 c -5.523,0 -10,4.477 -10,10 0,5.523 4.477,10 10,10 h 8.821 v 26.381 h -8.821 c -5.523,0 -10,4.477 -10,10 0,5.523 4.477,10 10,10 h 8.821 V 203 Z"
       id="path2"
       inkscape:connector-curvature="0" />
    <path
       d="M 266.774,149.225 H 159.225 c -5.523,0 -10,4.477 -10,10 v 107.55 c 0,5.523 4.477,10 10,10 h 107.549 c 5.523,0 10,-4.477 10,-10 v -107.55 c 0,-5.523 -4.477,-10 -10,-10 z m -10,107.55 h -87.549 v -87.55 h 87.549 z"
       id="path4"
       inkscape:connector-curvature="0" />
  </g>
</svg>
