<?xml version="1.0" encoding="UTF-8" standalone="no"?>
<!-- Created with Inkscape (http://www.inkscape.org/) -->

<svg
   xmlns:dc="http://purl.org/dc/elements/1.1/"
   xmlns:cc="http://creativecommons.org/ns#"
   xmlns:rdf="http://www.w3.org/1999/02/22-rdf-syntax-ns#"
   xmlns:svg="http://www.w3.org/2000/svg"
   xmlns="http://www.w3.org/2000/svg"
   xmlns:sodipodi="http://sodipodi.sourceforge.net/DTD/sodipodi-0.dtd"
   xmlns:inkscape="http://www.inkscape.org/namespaces/inkscape"
   width="180"
   height="180"
   viewBox="0 0 47.624999 47.625001"
   version="1.1"
   id="svg8"
   inkscape:version="0.92.1 r"
   sodipodi:docname="ic_quantum_computing_black.svg">
  <defs
     id="defs2" />
  <sodipodi:namedview
     id="base"
     pagecolor="#ffffff"
     bordercolor="#666666"
     borderopacity="1.0"
     inkscape:pageopacity="0.0"
     inkscape:pageshadow="2"
     inkscape:zoom="1.9040323"
     inkscape:cx="68.222938"
     inkscape:cy="78.718719"
     inkscape:document-units="px"
     inkscape:current-layer="layer1"
     showgrid="false"
     units="px"
     inkscape:pagecheckerboard="true"
     inkscape:showpageshadow="false"
     inkscape:window-width="1280"
     inkscape:window-height="737"
     inkscape:window-x="0"
     inkscape:window-y="32"
     inkscape:window-maximized="1"
     fit-margin-top="0"
     fit-margin-left="0"
     fit-margin-right="0"
     fit-margin-bottom="0" />
  <metadata
     id="metadata5">
    <rdf:RDF>
      <cc:Work
         rdf:about="">
        <dc:format>image/svg+xml</dc:format>
        <dc:type
           rdf:resource="http://purl.org/dc/dcmitype/StillImage" />
        <dc:title></dc:title>
      </cc:Work>
    </rdf:RDF>
  </metadata>
  <g
     inkscape:label="Layer 1"
     inkscape:groupmode="layer"
     id="layer1"
     transform="translate(-132.24327,-119.66539)">
    <g
       id="g4587"
       transform="matrix(1.1757995,0,0,1.1757995,-27.41633,-24.699948)">
      <path
         sodipodi:nodetypes="ccccsscscsccccccscscsscccscccccsssccsscsccsssccccccccsssccsccccscccccccccssccccccsccssccccscsss"
         style="fill:#000000;fill-opacity:1;stroke-width:0.26458332"
         d="m 153.8016,162.11554 c -1.53506,-0.70603 -3.40014,-2.7457 -4.50987,-4.93205 -0.9057,-1.78436 -1.10298,-2.84148 -0.53841,-2.88512 0.13385,-0.0103 0.6963,0.87886 1.24988,1.97604 1.80072,3.56894 3.76643,5.28118 6.06298,5.28118 1.5785,0 2.72243,-0.6477 4.32874,-2.45098 2.13038,-2.39161 2.61149,-1.36962 0.52343,1.11191 -0.38922,0.46256 -1.31628,1.19009 -2.06013,1.61673 -1.61576,0.92673 -3.43469,1.02827 -5.05662,0.28229 z m 7.9091,-5.87494 c -5.41968,-0.90658 -12.26264,-4.42028 -16.63416,-8.54124 -1.41921,-1.33786 -1.77367,-1.81233 -1.53343,-2.05257 0.24025,-0.24024 0.78926,0.10548 2.37507,1.49559 3.91191,3.42918 8.49007,6.00855 13.17654,7.42377 1.95382,0.59001 2.92443,0.72339 5.42251,0.74519 2.03795,0.0178 3.32666,-0.0933 3.9026,-0.33628 0.77401,-0.32659 0.8599,-0.47267 0.8599,-1.46249 0,-1.35765 0.52458,-2.14586 1.6825,-2.528 1.68253,-0.55529 3.08,0.552 3.08,2.44045 0,1.57096 -0.98299,2.34126 -2.8906,2.26517 -0.81127,-0.0324 -2.18465,0.14302 -3.05197,0.38974 -1.66613,0.47395 -4.14369,0.53625 -6.38896,0.16067 z m 10.95569,-1.88167 c 0.5607,-0.5607 0.37675,-1.74815 -0.34396,-2.22038 -0.64959,-0.24181 -0.59963,-0.30322 -1.32291,0 -0.79688,0.52214 -0.91266,1.83611 -0.19844,2.2521 0.63016,0.36703 1.48103,0.35256 1.86531,-0.0317 z m -33.79345,0.69085 c -1.0554,-0.88806 -1.11377,-2.24554 -0.15259,-3.54835 0.40798,-0.55298 0.66387,-1.25709 0.66774,-1.83734 0.0285,-4.26999 6.46713,-11.21696 13.79593,-14.88514 2.31545,-1.15892 6.34159,-2.59211 7.2818,-2.59211 1.0665,0 0.70334,0.75011 -0.51266,1.05892 -8.60008,2.18403 -17.46283,9.14219 -19.28477,15.14052 -0.43829,1.44296 -0.48299,1.88216 -0.2234,2.19495 0.17849,0.21507 0.49396,0.39103 0.70103,0.39103 0.78084,0 1.67537,1.25245 1.67537,2.3457 0,0.84415 -0.15762,1.17947 -0.81405,1.73182 -0.45854,0.38584 -1.14296,0.68498 -1.5672,0.68498 -0.42424,0 -1.10865,-0.29914 -1.5672,-0.68498 z m 2.57262,-0.69085 c 0.75921,-0.75922 0.13104,-2.28026 -0.93734,-2.36711 -0.67073,-0.0545 -1.39099,0.58753 -1.39099,1.34978 0,0.88574 0.44508,1.33483 1.32291,1.33483 0.37836,0 0.83079,-0.14288 1.00542,-0.3175 z m 21.99839,-0.93927 c 0.002,-0.25467 0.25689,-1.59412 0.54411,-2.97657 0.73686,-3.54668 0.72918,-9.38642 -0.0172,-13.04877 -0.88101,-4.32318 -2.86015,-8.35584 -4.8082,-9.79709 l -0.72432,-0.53588 -0.5986,0.54796 c -0.8801,0.80565 -1.63346,0.94555 -2.69753,0.50095 -0.97907,-0.40908 -1.47295,-1.22831 -1.47295,-2.44329 0,-0.94257 1.34295,-2.21138 2.3406,-2.21138 0.84984,0 2.4219,1.11843 2.4219,1.72305 0,0.1942 0.80367,1.16695 1.78594,2.16167 3.58006,3.62545 5.35999,9.18255 5.35581,16.72129 -0.003,5.05113 -0.73016,9.82722 -1.61464,9.82722 -0.21422,0 -0.51688,-0.0763 -0.51497,-0.33098 z m -6.33506,-26.52448 c 0.47716,-0.75966 0.41599,-1.00377 0.16642,-1.83007 -0.40463,-0.78293 -1.7039,-0.75995 -2.23017,-0.23368 -0.44953,0.44953 -0.39376,1.6851 0.0983,2.17714 0.56626,0.56626 1.32987,0.52221 1.96547,-0.11339 z m -2.21272,18.38697 c -1.0079,-1.0079 -0.59582,-2.59282 0.76279,-2.93381 1.47831,-0.37104 2.71035,1.38999 1.86987,2.67272 -0.50437,0.76977 -1.97786,0.9159 -2.63266,0.26109 z m 13.58981,-0.0509 c 0,-0.10162 0.54099,-0.9911 1.20221,-1.97663 1.99974,-2.98057 2.65945,-5.60038 1.87308,-7.43825 -0.73343,-1.71414 -3.12169,-3.12048 -5.16396,-3.34354 -1.2342,-0.1348 -0.77978,-0.11114 -1.2342,-0.1348 -0.48988,-0.36052 -0.35243,-0.72529 0.10626,-0.90305 0.89106,-0.3453 3.17727,0.43251 4.59136,1.19521 0.83966,0.45287 1.70176,1.19941 2.18819,1.89489 0.71599,1.02368 0.80157,1.35228 0.79248,3.04271 -0.008,1.56259 -0.15768,2.21023 -0.85075,3.69118 -1.10004,2.35057 -2.35177,4.38285 -2.95958,4.38285 -0.26637,0 -0.5451,-0.30891 -0.5451,-0.41057 z m -28.40658,-4.2801 c -0.53706,-1.19673 -0.69759,-1.97633 -0.69759,-3.38778 0,-2.50641 0.87568,-3.93032 3.08251,-5.01235 1.36437,-0.66895 1.89626,-0.77006 4.49031,-0.85357 1.93478,-0.0623 3.14324,0.0126 3.52839,0.21877 0.32218,0.17242 0.50604,0.39315 0.40857,0.4905 -0.0975,0.0974 -1.56617,0.177 -3.2638,0.177 -2.84452,0 -3.20485,0.0581 -4.59427,0.74036 -2.60832,1.28087 -3.40155,3.45291 -2.33853,6.40339 0.85892,2.38398 0.92611,2.77812 0.47359,2.77812 -0.22213,0 -0.69346,-0.67266 -1.08918,-1.55444 z"
         id="path4516"
         inkscape:connector-curvature="0" />
      <path
         sodipodi:nodetypes="csccccccccsccssccccccscsccccccccsscccsccsccccccsscscsccsscsccsccscccsssccccccscccsc"
         style="fill:#000000;fill-opacity:1;stroke-width:0.26458332"
         d="m 153.66931,161.82984 c -1.41445,-0.75777 -3.0478,-2.59281 -4.08815,-4.59295 -0.90993,-1.7494 -1.15048,-2.57634 -0.7405,-2.54557 0.10914,0.008 0.58337,0.82256 1.05383,1.80971 2.09327,4.39221 5.34523,6.28348 8.25325,4.79992 0.55978,-0.28558 1.61378,-1.18793 2.34222,-2.00522 1.58747,-1.78111 2.02286,-1.57086 0.60296,0.29118 -1.91548,2.51195 -5.11632,3.47903 -7.42361,2.24293 z m 7.40833,-5.96059 c -5.32523,-1.0681 -11.50699,-4.31034 -15.80885,-8.29148 -0.76399,-0.70702 -1.38906,-1.43068 -1.38906,-1.60812 0,-0.17744 0.82424,0.41534 1.83165,1.3173 7.0868,6.34497 17.70798,9.97564 22.87143,7.81822 0.90591,-0.37852 0.9615,-0.47136 0.9615,-1.60587 0,-2.55968 2.94678,-3.43621 4.09398,-1.21777 0.50097,0.96877 0.32157,1.86689 -0.53336,2.67005 -0.52019,0.4887 -0.83609,0.56646 -1.84092,0.4532 -0.79185,-0.0893 -1.76841,0.0362 -2.81283,0.36122 -1.8663,0.58085 -4.78837,0.62177 -7.37354,0.10325 z m 11.68698,-1.36612 c 0.53758,-0.4865 0.62795,-1.44433 0.20996,-2.22535 -0.34123,-0.63759 -1.88414,-0.69719 -2.48533,-0.096 -1.41248,1.41248 0.79319,3.6627 2.27537,2.32135 z m -33.79171,0.31761 c -0.80708,-0.80708 -0.84992,-2.03003 -0.10762,-3.07249 0.29799,-0.41849 0.65319,-1.4489 0.78933,-2.2898 0.79999,-4.94125 6.48794,-10.91298 13.8824,-14.575 2.52237,-1.24917 6.25646,-2.52293 6.9283,-2.36336 0.55715,0.13235 0.70563,0.0673 -2.56268,1.12209 -4.87317,1.57267 -9.74071,4.60739 -13.27617,8.27716 -2.42707,2.51928 -3.64482,4.41482 -4.30279,6.69767 -0.49065,1.70234 -0.37297,2.24145 0.53921,2.47039 1.07234,0.26914 1.69392,1.09364 1.69392,2.24691 0,1.92032 -2.22654,2.84379 -3.5839,1.48643 z m 2.63546,-0.38415 c 0.6733,-0.74399 0.4642,-2.15822 -0.38961,-2.63507 -0.58238,-0.32525 -0.78502,-0.32614 -1.45521,-0.006 -1.52348,0.7268 -1.0032,3.14589 0.67659,3.14589 0.39146,0 0.91716,-0.22699 1.16823,-0.50442 z m 22.11511,-1.05475 c 0,-0.18814 0.24937,-1.55141 0.55417,-3.02948 0.75617,-3.66701 0.61182,-10.75387 -0.28917,-14.19677 -1.04374,-3.98835 -3.0907,-7.70551 -4.89388,-8.887 -0.55714,-0.36505 -0.68398,-0.34309 -1.59696,0.27648 -1.10876,0.75242 -1.48607,0.81171 -2.32437,0.36522 -0.86278,-0.45952 -1.22159,-1.04813 -1.23096,-2.01933 -0.0108,-1.11738 0.98912,-2.17078 2.06054,-2.17078 0.85615,0 1.76703,1.04665 2.16438,1.47257 0.31609,0.33881 0.81435,1.18187 1.78593,2.17493 2.59331,2.61243 4.11929,5.9644 4.98667,10.95374 0.76207,4.38359 0.14782,14.03833 -0.96386,15.15002 -0.16027,0.16026 -0.25249,0.12753 -0.25249,-0.0896 z m -6.47027,-26.34235 c 0.79235,-0.79234 0.81154,-1.18978 0.10106,-2.09301 -0.99564,-1.26576 -2.89121,-0.65512 -2.89121,0.93137 0,0.87858 0.82357,1.81108 1.59953,1.81108 0.29765,0 0.83343,-0.29225 1.19062,-0.64944 z m -1.73409,18.28752 c -0.93606,-0.47459 -1.21174,-1.07865 -0.85231,-1.86753 0.40095,-0.87999 1.45163,-1.14363 2.31172,-0.58008 1.50972,0.98921 0.15277,3.265 -1.45941,2.44761 z m 13.41673,-0.50631 c 0.11637,-0.1819 0.65132,-0.99908 1.18879,-1.81595 1.3597,-2.06657 2.16131,-4.54402 1.95645,-6.04662 -0.33979,-2.49227 -2.41126,-4.21076 -5.37158,-4.45625 -0.77456,-0.0642 -1.48363,-0.23867 -1.5757,-0.38764 -0.37304,-0.6036 3.25873,-0.0113 4.68263,0.76371 2.04492,1.11298 2.77058,2.34753 2.77058,4.71353 0,1.60305 -0.13626,2.15596 -0.95019,3.85578 -0.95303,1.99032 -2.18301,3.70417 -2.65835,3.70417 -0.13983,0 -0.15901,-0.14882 -0.0426,-0.33073 z m -28.51689,-3.67853 c -0.70778,-1.38613 -0.97544,-4.23164 -0.5261,-5.59315 0.43018,-1.30347 2.08267,-2.71846 3.75454,-3.21495 1.46539,-0.43518 5.93078,-0.56534 6.522,-0.19011 0.18509,0.11747 -1.00553,0.20797 -2.64584,0.20109 -2.55135,-0.0107 -3.17217,0.074 -4.29563,0.58621 -1.67994,0.76589 -2.21932,1.2562 -2.81934,2.56287 -0.6513,1.41832 -0.61261,2.55287 0.1619,4.74798 0.3566,1.01066 0.60052,1.8854 0.54205,1.94387 -0.0585,0.0585 -0.37059,-0.41124 -0.69358,-1.04381 z"
         id="path4514"
         inkscape:connector-curvature="0" />
    </g>
  </g>
</svg>
